<svg width="16" height="14" viewBox="0 0 16 14" fill="none" xmlns="http://www.w3.org/2000/svg">
    <path fill-rule="evenodd" clip-rule="evenodd" d="M0.5 7C0.5 6.65482 0.779822 6.375 1.125 6.375H14.875C15.2202 6.375 15.5 6.65482 15.5 7C15.5 7.34518 15.2202 7.625 14.875 7.625H1.125C0.779822 7.625 0.5 7.34518 0.5 7Z" fill="#4267B3"/>
    <path fill-rule="evenodd" clip-rule="evenodd" d="M8.80806 0.933058C9.05214 0.688981 9.44786 0.688981 9.69194 0.933058L15.3169 6.55806C15.561 6.80214 15.561 7.19786 15.3169 7.44194L9.69194 13.0669C9.44786 13.311 9.05214 13.311 8.80806 13.0669C8.56398 12.8229 8.56398 12.4271 8.80806 12.1831L13.9911 7L8.80806 1.81694C8.56398 1.57286 8.56398 1.17714 8.80806 0.933058Z" fill="#4267B3"/>
</svg>