<svg width="13" height="10" viewBox="0 0 13 10" fill="none" xmlns="http://www.w3.org/2000/svg">
    <path fill-rule="evenodd" clip-rule="evenodd" d="M0.5 5C0.5 4.72386 0.723858 4.5 1 4.5H12C12.2761 4.5 12.5 4.72386 12.5 5C12.5 5.27614 12.2761 5.5 12 5.5H1C0.723858 5.5 0.5 5.27614 0.5 5Z" fill="white"/>
    <path fill-rule="evenodd" clip-rule="evenodd" d="M7.14645 0.146447C7.34171 -0.0488155 7.65829 -0.0488155 7.85355 0.146447L12.3536 4.64645C12.5488 4.84171 12.5488 5.15829 12.3536 5.35355L7.85355 9.85355C7.65829 10.0488 7.34171 10.0488 7.14645 9.85355C6.95118 9.65829 6.95118 9.34171 7.14645 9.14645L11.2929 5L7.14645 0.853553C6.95118 0.658291 6.95118 0.341709 7.14645 0.146447Z" fill="white"/>
</svg>