<svg width="32" height="32" viewBox="0 0 32 32" fill="none" xmlns="http://www.w3.org/2000/svg">
    <path fill-rule="evenodd" clip-rule="evenodd" d="M16 8C16.5523 8 17 8.44772 17 9V11C17 11.5523 16.5523 12 16 12C15.4477 12 15 11.5523 15 11V9C15 8.44772 15.4477 8 16 8Z" fill="#303030"/>
    <path fill-rule="evenodd" clip-rule="evenodd" d="M16 20C16.5523 20 17 20.4477 17 21V23C17 23.5523 16.5523 24 16 24C15.4477 24 15 23.5523 15 23V21C15 20.4477 15.4477 20 16 20Z" fill="#303030"/>
    <path fill-rule="evenodd" clip-rule="evenodd" d="M16 5C9.92487 5 5 9.92487 5 16C5 22.0751 9.92487 27 16 27C22.0751 27 27 22.0751 27 16C27 9.92487 22.0751 5 16 5ZM3 16C3 8.8203 8.8203 3 16 3C23.1797 3 29 8.8203 29 16C29 23.1797 23.1797 29 16 29C8.8203 29 3 23.1797 3 16Z" fill="#303030"/>
    <path fill-rule="evenodd" clip-rule="evenodd" d="M14.5 12C14.1022 12 13.7206 12.158 13.4393 12.4393C13.158 12.7206 13 13.1022 13 13.5C13 13.8978 13.158 14.2794 13.4393 14.5607C13.7206 14.842 14.1022 15 14.5 15H17.5C18.4283 15 19.3185 15.3687 19.9749 16.0251C20.6313 16.6815 21 17.5717 21 18.5C21 19.4283 20.6313 20.3185 19.9749 20.9749C19.3185 21.6313 18.4283 22 17.5 22H13C12.4477 22 12 21.5523 12 21C12 20.4477 12.4477 20 13 20H17.5C17.8978 20 18.2794 19.842 18.5607 19.5607C18.842 19.2794 19 18.8978 19 18.5C19 18.1022 18.842 17.7206 18.5607 17.4393C18.2794 17.158 17.8978 17 17.5 17H14.5C13.5717 17 12.6815 16.6313 12.0251 15.9749C11.3687 15.3185 11 14.4283 11 13.5C11 12.5717 11.3687 11.6815 12.0251 11.0251C12.6815 10.3687 13.5717 10 14.5 10H19C19.5523 10 20 10.4477 20 11C20 11.5523 19.5523 12 19 12H14.5Z" fill="#303030"/>
</svg>