<svg width="20" height="14" viewBox="0 0 20 14" fill="none" xmlns="http://www.w3.org/2000/svg">
    <path fill-rule="evenodd" clip-rule="evenodd" d="M2.83928 3.7454C4.32917 2.25535 6.66711 0.749512 10 0.749512C13.3329 0.749512 15.6708 2.25535 17.1607 3.7454C17.9039 4.48862 18.4397 5.23075 18.7906 5.78814C18.9664 6.06732 19.0966 6.30157 19.184 6.46842C19.2277 6.55189 19.2608 6.61862 19.2835 6.66583C19.2949 6.68944 19.3037 6.70818 19.3099 6.72171L19.3174 6.73805L19.3198 6.7432L19.3209 6.74573C19.321 6.74603 19.3211 6.74631 18.75 7.00012C19.3211 7.25398 19.321 7.25426 19.3209 7.25456L19.3205 7.25528L19.3197 7.25709L19.3174 7.26224L19.3099 7.27858C19.3037 7.2921 19.2949 7.31084 19.2835 7.33445C19.2608 7.38165 19.2277 7.44837 19.184 7.53182C19.0966 7.69864 18.9664 7.93284 18.7906 8.21197C18.4397 8.76924 17.9038 9.51122 17.1607 10.2543C15.6708 11.744 13.3328 13.2495 10 13.2495C6.66716 13.2495 4.32923 11.744 2.83933 10.2543C2.09619 9.51122 1.56031 8.76924 1.2094 8.21197C1.03364 7.93284 0.903387 7.69864 0.815997 7.53182C0.772279 7.44837 0.739217 7.38165 0.716488 7.33445C0.70512 7.31084 0.69633 7.2921 0.690077 7.27858L0.682593 7.26224L0.680266 7.25709L0.679455 7.25528L0.679137 7.25456C0.679003 7.25426 0.678878 7.25398 1.25 7.00012C0.678858 6.74631 0.678982 6.74603 0.679117 6.74573L0.679434 6.74501L0.680245 6.7432L0.682571 6.73805L0.690056 6.72171C0.696308 6.70818 0.705098 6.68944 0.716465 6.66583C0.739194 6.61862 0.772254 6.55189 0.815971 6.46842C0.903359 6.30157 1.03361 6.06732 1.20937 5.78814C1.56028 5.23075 2.09615 4.48862 2.83928 3.7454ZM1.25 7.00012L0.678858 6.74631C0.60704 6.90791 0.607048 7.09238 0.678878 7.25398L1.25 7.00012ZM1.94882 7.00009C2.02235 6.86234 2.12795 6.67528 2.26719 6.4541C2.58035 5.95668 3.0601 5.29242 3.72322 4.62923C5.04583 3.30647 7.08289 1.99951 10 1.99951C12.9171 1.99951 14.9542 3.30647 16.2768 4.62923C16.9399 5.29242 17.4197 5.95668 17.7328 6.4541C17.8721 6.67528 17.9776 6.86234 18.0512 7.00009C17.9777 7.1378 17.8721 7.3248 17.7328 7.5459C17.4197 8.0432 16.9399 8.70732 16.2768 9.37035C14.9542 10.6928 12.9172 11.9995 10 11.9995C7.08284 11.9995 5.04577 10.6928 3.72317 9.37035C3.06006 8.70732 2.58031 8.0432 2.26716 7.5459C2.12793 7.3248 2.02235 7.1378 1.94882 7.00009ZM18.75 7.00012L19.3211 7.25398C19.393 7.09238 19.393 6.90791 19.3211 6.74631L18.75 7.00012Z" fill="#4267B3"/>
    <path fill-rule="evenodd" clip-rule="evenodd" d="M10 4.50024C8.61929 4.50024 7.5 5.61953 7.5 7.00024C7.5 8.38096 8.61929 9.50024 10 9.50024C11.3807 9.50024 12.5 8.38096 12.5 7.00024C12.5 5.61953 11.3807 4.50024 10 4.50024ZM6.25 7.00024C6.25 4.92918 7.92893 3.25024 10 3.25024C12.0711 3.25024 13.75 4.92918 13.75 7.00024C13.75 9.07131 12.0711 10.7502 10 10.7502C7.92893 10.7502 6.25 9.07131 6.25 7.00024Z" fill="#4267B3"/>
</svg>