<svg width="16" height="16" viewBox="0 0 16 16" fill="none" xmlns="http://www.w3.org/2000/svg">
    <path fill-rule="evenodd" clip-rule="evenodd" d="M11.6901 3.09183C11.4171 2.97875 11.1244 2.92059 10.8288 2.92065C10.5332 2.92072 10.2406 2.97902 9.96757 3.09223C9.69455 3.20543 9.4465 3.37131 9.2376 3.5804L8 4.81801C7.80474 5.01327 7.48816 5.01327 7.2929 4.81801C7.09763 4.62274 7.09763 4.30616 7.2929 4.1109L8.53017 2.87363C8.83187 2.57168 9.19027 2.33196 9.58457 2.16848C9.97893 2.00497 10.4017 1.92075 10.8286 1.92065C11.2555 1.92055 11.6783 2.00457 12.0727 2.1679C12.4672 2.33123 12.8256 2.57068 13.1274 2.87256C13.4293 3.17444 13.6688 3.53284 13.8321 3.92728C13.9954 4.32173 14.0794 4.74449 14.0793 5.17141C14.0792 5.59833 13.995 6.02105 13.8315 6.41542C13.668 6.80972 13.4285 7.16795 13.1265 7.46966C13.1265 7.46971 13.1266 7.4696 13.1265 7.46966L11.3588 9.23742C11.057 9.53922 10.6987 9.77861 10.3044 9.94194C9.91008 10.1053 9.48746 10.1893 9.06066 10.1893C8.63387 10.1893 8.21125 10.1053 7.81694 9.94194C7.42263 9.77861 7.06436 9.53922 6.76257 9.23742C6.5673 9.04216 6.5673 8.72558 6.76257 8.53032C6.95783 8.33506 7.27441 8.33506 7.46967 8.53032C7.6786 8.73925 7.92664 8.90498 8.19962 9.01806C8.47261 9.13113 8.76519 9.18933 9.06066 9.18933C9.35614 9.18933 9.64872 9.13113 9.9217 9.01806C10.1947 8.90498 10.4427 8.73925 10.6517 8.53032L12.4194 6.76255C12.6285 6.55365 12.7946 6.30544 12.9078 6.03242C13.021 5.75939 13.0793 5.46674 13.0793 5.17118C13.0794 4.87562 13.0212 4.58294 12.9082 4.30986C12.7951 4.03678 12.6293 3.78866 12.4203 3.57966C12.2113 3.37067 11.9632 3.2049 11.6901 3.09183Z" fill="#4267B3"/>
    <path fill-rule="evenodd" clip-rule="evenodd" d="M6.93933 6.81055C6.64385 6.81055 6.35127 6.86875 6.07829 6.98182C5.80531 7.09489 5.55727 7.26063 5.34834 7.46956L3.58057 9.23732C3.37148 9.44622 3.20543 9.69443 3.09223 9.96746C2.97902 10.2405 2.92072 10.5331 2.92065 10.8287C2.92059 11.1243 2.97875 11.4169 3.09183 11.69C3.2049 11.9631 3.37067 12.2112 3.57966 12.4202C3.78866 12.6292 4.03678 12.795 4.30986 12.908C4.58294 13.0211 4.87562 13.0793 5.17118 13.0792C5.46674 13.0792 5.75939 13.0209 6.03242 12.9076C6.30544 12.7944 6.55349 12.6286 6.76239 12.4195L7.99999 11.1819C8.19525 10.9866 8.51183 10.9866 8.70709 11.1819C8.90236 11.3771 8.90236 11.6937 8.70709 11.889L7.46982 13.1262C7.46977 13.1263 7.46988 13.1262 7.46982 13.1262C7.16812 13.4282 6.80972 13.6679 6.41542 13.8314C6.02105 13.9949 5.59833 14.0791 5.17141 14.0792C4.74449 14.0793 4.32173 13.9953 3.92728 13.832C3.53284 13.6686 3.17444 13.4292 2.87256 13.1273C2.57068 12.8254 2.33123 12.467 2.1679 12.0726C2.00457 11.6781 1.92055 11.2554 1.92065 10.8285C1.92075 10.4015 2.00497 9.97882 2.16848 9.58445C2.33199 9.19008 2.57161 8.83179 2.87363 8.53005L4.64123 6.76245C4.94302 6.46066 5.3013 6.22127 5.69561 6.05794C6.08991 5.89461 6.51253 5.81055 6.93933 5.81055C7.36612 5.81055 7.78874 5.89461 8.18305 6.05794C8.57736 6.22127 8.93563 6.46066 9.23742 6.76245C9.43269 6.95771 9.43269 7.27429 9.23742 7.46956C9.04216 7.66482 8.72558 7.66482 8.53032 7.46956C8.32139 7.26063 8.07335 7.09489 7.80036 6.98182C7.52738 6.86875 7.2348 6.81055 6.93933 6.81055Z" fill="#4267B3"/>
</svg>