<svg width="20" height="20" viewBox="0 0 20 20" fill="none" xmlns="http://www.w3.org/2000/svg">
    <path fill-rule="evenodd" clip-rule="evenodd" d="M13.1538 6.27681C13.3978 6.03273 13.7936 6.03273 14.0376 6.27681L17.3189 9.55806C17.563 9.80214 17.563 10.1979 17.3189 10.4419L14.0376 13.7232C13.7936 13.9673 13.3978 13.9673 13.1538 13.7232C12.9097 13.4791 12.9097 13.0834 13.1538 12.8393L15.9931 10L13.1538 7.16069C12.9097 6.91661 12.9097 6.52089 13.1538 6.27681Z" fill="#303030"/>
    <path fill-rule="evenodd" clip-rule="evenodd" d="M7.5 10C7.5 9.65482 7.77982 9.375 8.125 9.375H16.875C17.2202 9.375 17.5 9.65482 17.5 10C17.5 10.3452 17.2202 10.625 16.875 10.625H8.125C7.77982 10.625 7.5 10.3452 7.5 10Z" fill="#303030"/>
    <path fill-rule="evenodd" clip-rule="evenodd" d="M2.86612 2.86612C3.10054 2.6317 3.41848 2.5 3.75 2.5H9.375C9.72018 2.5 10 2.77982 10 3.125C10 3.47018 9.72018 3.75 9.375 3.75L3.75 3.75L3.75 16.25H9.375C9.72018 16.25 10 16.5298 10 16.875C10 17.2202 9.72018 17.5 9.375 17.5H3.75C3.41848 17.5 3.10054 17.3683 2.86612 17.1339C2.6317 16.8995 2.5 16.5815 2.5 16.25V3.75C2.5 3.41848 2.6317 3.10054 2.86612 2.86612Z" fill="#303030"/>
</svg>