<svg width="14" height="20" viewBox="0 0 14 20" xmlns="http://www.w3.org/2000/svg">
    <path fill-rule="evenodd" clip-rule="evenodd" d="M6.99954 1.875C3.89294 1.875 1.37454 4.3934 1.37454 7.5C1.37454 10.6066 3.89294 13.125 6.99954 13.125C10.1061 13.125 12.6245 10.6066 12.6245 7.5C12.6245 4.3934 10.1061 1.875 6.99954 1.875ZM0.124542 7.5C0.124542 3.70304 3.20258 0.625 6.99954 0.625C10.7965 0.625 13.8745 3.70304 13.8745 7.5C13.8745 11.297 10.7965 14.375 6.99954 14.375C3.20258 14.375 0.124542 11.297 0.124542 7.5Z" />
    <path fill-rule="evenodd" clip-rule="evenodd" d="M6.99954 4.375C5.27365 4.375 3.87454 5.77411 3.87454 7.5C3.87454 9.22589 5.27365 10.625 6.99954 10.625C8.72543 10.625 10.1245 9.22589 10.1245 7.5C10.1245 5.77411 8.72543 4.375 6.99954 4.375ZM2.62454 7.5C2.62454 5.08375 4.5833 3.125 6.99954 3.125C9.41579 3.125 11.3745 5.08375 11.3745 7.5C11.3745 9.91625 9.41579 11.875 6.99954 11.875C4.5833 11.875 2.62454 9.91625 2.62454 7.5Z" />
    <path fill-rule="evenodd" clip-rule="evenodd" d="M10.75 11.8745C11.0952 11.8745 11.375 12.1543 11.375 12.4995V18.7499C11.375 18.9665 11.2628 19.1677 11.0786 19.2815C10.8943 19.3954 10.6643 19.4058 10.4705 19.3089L6.99949 17.5737L3.52954 19.3089C3.3358 19.4058 3.1057 19.3954 2.92143 19.2816C2.73716 19.1677 2.625 18.9665 2.625 18.7499V12.5001C2.625 12.1549 2.90482 11.8751 3.25 11.8751C3.59518 11.8751 3.875 12.1549 3.875 12.5001V17.7386L6.71991 16.3159C6.89586 16.2279 7.10297 16.2279 7.27893 16.3159L10.125 17.7387V12.4995C10.125 12.1543 10.4048 11.8745 10.75 11.8745Z" />
</svg>