<svg width="12" height="13" viewBox="0 0 12 13" fill="none" xmlns="http://www.w3.org/2000/svg">
    <path fill-rule="evenodd" clip-rule="evenodd" d="M0.292893 0.292893C0.480429 0.105357 0.734783 0 1 0H11C11.2652 0 11.5196 0.105357 11.7071 0.292893C11.8946 0.48043 12 0.734784 12 1V4.66667C12 10.2699 7.23528 12.12 6.31315 12.4262C6.11011 12.4953 5.88989 12.4953 5.68685 12.4262C4.76472 12.12 0 10.2699 0 4.66667V1C0 0.734783 0.105357 0.480429 0.292893 0.292893ZM11 1L1 1L1 4.66667C1 9.55346 5.12841 11.1867 6 11.4765C6.87159 11.1867 11 9.55346 11 4.66667V1Z" fill="#0A7846"/>
    <path fill-rule="evenodd" clip-rule="evenodd" d="M9.11168 3.65476C9.30235 3.85451 9.29499 4.17101 9.09524 4.36168L5.42855 7.86168C5.23534 8.04611 4.93128 8.04611 4.73807 7.86168L2.90476 6.11168C2.70501 5.92101 2.69765 5.60451 2.88833 5.40476C3.079 5.20501 3.39549 5.19765 3.59524 5.38832L5.08332 6.80878L8.40476 3.63832C8.60451 3.44765 8.92101 3.45501 9.11168 3.65476Z" fill="#0A7846"/>
</svg>