<svg width="16" height="13" viewBox="0 0 16 13" fill="none" xmlns="http://www.w3.org/2000/svg">
    <path fill-rule="evenodd" clip-rule="evenodd" d="M1.80691 1.22908C1.33448 2.94051 1.40898 4.75687 2.02003 6.42393C2.54443 7.85461 3.44147 9.11381 4.6123 10.0747C3.54384 10.663 2.34394 10.9822 1.11711 10.9992C0.937901 11.0017 0.773729 11.0999 0.686794 11.2566L0.686388 11.2573C0.622018 11.3734 0.606421 11.5102 0.643033 11.6378C0.679644 11.7654 0.765461 11.8731 0.881579 11.9374C2.15322 12.6409 3.58397 13.0067 5.03724 13C6.49051 12.9932 7.91779 12.6141 9.18283 11.8987C10.4479 11.1834 11.5084 10.1557 12.2633 8.91384C12.975 7.74296 13.3925 6.41851 13.482 5.05368C14.2262 4.50628 14.8765 3.84065 15.4067 3.08276C15.4133 3.07358 15.4195 3.06419 15.4254 3.05461C15.4965 2.93977 15.5207 2.7971 15.4824 2.65845C15.466 2.59888 15.4386 2.54215 15.4007 2.4916C15.3629 2.44104 15.3161 2.39875 15.2636 2.36625C15.1488 2.29521 15.0061 2.27096 14.8674 2.30931C14.8567 2.31227 14.846 2.31559 14.8355 2.31926C14.2235 2.52439 13.5882 2.64997 12.945 2.69322C12.5943 2.19962 12.1007 1.82147 11.5273 1.61227C10.8539 1.36661 10.1148 1.37012 9.4438 1.62216C8.77279 1.87421 8.21417 2.35814 7.86905 2.98637C7.63756 3.40774 7.51238 3.87536 7.49945 4.34929C6.62811 4.17149 5.79367 3.83976 5.0359 3.36807C4.10436 2.78821 3.31145 2.01101 2.71307 1.09133C2.68046 1.03955 2.63802 0.99327 2.58679 0.955495C2.42004 0.832529 2.19473 0.825143 2.02028 0.936924L2.02026 0.936939C1.91494 1.00443 1.83899 1.10877 1.80691 1.22908ZM8.53819 4.82844C8.44424 4.36481 8.51759 3.88272 8.7455 3.46786C8.97561 3.049 9.34805 2.72635 9.79543 2.5583C10.2428 2.39025 10.7356 2.38791 11.1845 2.5517C11.6304 2.71435 12.0038 3.03016 12.2382 3.44258C12.2634 3.48966 12.2962 3.53283 12.3357 3.57018C12.4323 3.66135 12.5612 3.71036 12.6939 3.7064C13.0072 3.69705 13.3193 3.67048 13.6289 3.62692C13.3452 3.89836 13.04 4.14756 12.716 4.37197C12.5856 4.45965 12.5012 4.60591 12.4953 4.76885C12.4489 6.05037 12.0748 7.29862 11.4088 8.39443C10.7427 9.49024 9.80685 10.397 8.6906 11.0282C7.57435 11.6595 6.31493 11.994 5.03258 12C4.3661 12.0031 3.70499 11.9174 3.06617 11.7472C4.02724 11.5069 4.9436 11.0984 5.77114 10.5357C5.82455 10.5013 5.87224 10.456 5.91072 10.4006L5.91077 10.4005C6.04831 10.2025 6.0249 9.93446 5.8551 9.76325C5.8295 9.73743 5.80167 9.71493 5.77218 9.69578C4.4809 8.8128 3.49736 7.5487 2.95894 6.07978C2.54366 4.94681 2.40919 3.7357 2.55971 2.54891C3.11942 3.1986 3.77569 3.76154 4.50745 4.21703C5.5613 4.87302 6.74601 5.29017 7.97826 5.43922C8.03473 5.4476 8.09359 5.44637 8.15273 5.43416L8.15291 5.43412C8.39302 5.38454 8.56175 5.16817 8.55133 4.92322C8.54995 4.89076 8.54548 4.85906 8.53819 4.82844Z" fill="#4267B3"/>
</svg>