<svg width="16" height="13" viewBox="0 0 16 13" fill="none" xmlns="http://www.w3.org/2000/svg">
    <path fill-rule="evenodd" clip-rule="evenodd" d="M1.80681 1.22908C1.33439 2.94051 1.40889 4.75687 2.01993 6.42393C2.54434 7.85461 3.44138 9.11381 4.6122 10.0747C3.54374 10.663 2.34384 10.9822 1.11702 10.9992C0.937809 11.0017 0.773638 11.0999 0.686703 11.2566L0.686296 11.2573C0.621927 11.3734 0.60633 11.5102 0.642941 11.6378C0.679553 11.7654 0.765369 11.8731 0.881487 11.9374C2.15313 12.6409 3.58388 13.0067 5.03715 13C6.49042 12.9932 7.9177 12.6141 9.18273 11.8987C10.4478 11.1834 11.5083 10.1557 12.2632 8.91384C12.9749 7.74296 13.3924 6.41851 13.4819 5.05368C14.2261 4.50628 14.8764 3.84065 15.4066 3.08276C15.4132 3.07358 15.4194 3.06419 15.4253 3.05461C15.4964 2.93977 15.5206 2.7971 15.4823 2.65845C15.4659 2.59888 15.4385 2.54215 15.4006 2.4916C15.3628 2.44104 15.3161 2.39875 15.2635 2.36625C15.1487 2.29521 15.006 2.27096 14.8674 2.30931C14.8566 2.31227 14.8459 2.31559 14.8354 2.31926C14.2235 2.52439 13.5881 2.64997 12.9449 2.69322C12.5942 2.19962 12.1006 1.82147 11.5272 1.61227C10.8538 1.36661 10.1147 1.37012 9.44371 1.62216C8.7727 1.87421 8.21408 2.35814 7.86896 2.98637C7.63747 3.40774 7.51229 3.87536 7.49936 4.34929C6.62802 4.17149 5.79358 3.83976 5.03581 3.36807C4.10427 2.78821 3.31136 2.01101 2.71298 1.09133C2.68037 1.03955 2.63793 0.99327 2.5867 0.955495C2.41995 0.832529 2.19464 0.825143 2.02019 0.936924L2.02017 0.936939C1.91485 1.00443 1.8389 1.10877 1.80681 1.22908ZM8.5381 4.82844C8.44415 4.36481 8.5175 3.88272 8.74541 3.46786C8.97551 3.049 9.34796 2.72635 9.79534 2.5583C10.2427 2.39025 10.7355 2.38791 11.1844 2.5517C11.6303 2.71435 12.0037 3.03016 12.2381 3.44258C12.2633 3.48966 12.2961 3.53283 12.3357 3.57018C12.4322 3.66135 12.5611 3.71036 12.6938 3.7064C13.0071 3.69705 13.3192 3.67048 13.6288 3.62692C13.3451 3.89836 13.0399 4.14756 12.7159 4.37197C12.5855 4.45965 12.5011 4.60591 12.4952 4.76885C12.4488 6.05037 12.0747 7.29862 11.4087 8.39443C10.7426 9.49024 9.80676 10.397 8.69051 11.0282C7.57425 11.6595 6.31484 11.994 5.03249 12C4.36601 12.0031 3.7049 11.9174 3.06608 11.7472C4.02715 11.5069 4.94351 11.0984 5.77105 10.5357C5.82446 10.5013 5.87215 10.456 5.91063 10.4006L5.91068 10.4005C6.04822 10.2025 6.02481 9.93446 5.85501 9.76325C5.82941 9.73743 5.80158 9.71493 5.77208 9.69578C4.48081 8.8128 3.49727 7.5487 2.95885 6.07978C2.54357 4.94681 2.4091 3.7357 2.55962 2.54891C3.11932 3.1986 3.7756 3.76154 4.50735 4.21703C5.56121 4.87302 6.74592 5.29017 7.97817 5.43922C8.03463 5.4476 8.0935 5.44637 8.15264 5.43416L8.15282 5.43412C8.39292 5.38454 8.56166 5.16817 8.55124 4.92322C8.54986 4.89076 8.54539 4.85906 8.5381 4.82844Z" fill="white"/>
</svg>